<?xml version="1.0" encoding="utf-8"?>
<!-- Generator: Adobe Illustrator 25.4.1, SVG Export Plug-In . SVG Version: 6.00 Build 0)  -->
<svg version="1.1" id="Layer_1" xmlns="http://www.w3.org/2000/svg" xmlns:xlink="http://www.w3.org/1999/xlink" x="0px" y="0px"
	 viewBox="0 0 118.8 139" style="enable-background:new 0 0 118.8 139;" xml:space="preserve">
<style type="text/css">
	.st0{fill:#185454;}
</style>
<g>
	<path class="st0" d="M77.9,129.5c-0.6-0.8-1.6-1.2-2.5-1.4c-2.4-0.8-4.8-1.3-7.2-2.3c-2.3-0.9-4.6-2.3-6.3-4.4
		c-0.1-0.2-0.3-0.3-0.3-0.5c-0.2-0.6,0.4-1.2,0.8-1.6c2.4-1.9,5-3.5,7.1-5.9c2.1-2.4,3.6-5.6,3.3-8.9c-0.2-2.3-1.4-4.4-2.9-5.9
		c-1.5-1.5-3.4-2.5-5.3-3.2c-2.8-1-5.9-1.3-8.8-0.4c-3.1,1-5.2,3.4-6.5,6.7c-0.8,1.9-1.1,4.3-1.4,6.4c-0.3,2.2-0.6,4.4-0.8,6.6
		c-0.5,5.2-0.7,10.4-1.4,15.5c-0.2,1.7-0.4,3.7,0.5,5c0.5,0.8,1.4,1.2,2.2,1.2c0.8,0.1,1.7-0.2,2.3-0.8c0.8-0.8,1-2.1,1.1-3.4
		c0.3-2.7,0.7-5.5,1-8.2c0-0.4,0.1-0.9,0.4-1c0.4-0.3,0.9,0.2,1.2,0.6c4.5,5.5,10,10.1,16.4,11.7c1.5,0.4,3,0.6,4.5,0.1
		s2.8-1.7,3.1-3.4c0.1-0.7,0.1-1.5-0.3-2.2C78.1,129.8,78,129.7,77.9,129.5z M56.6,114.1c-0.6,0.4-1.3,0.8-2,1.1
		c-0.2,0.1-0.4,0.2-0.7,0.1c-0.5-0.1-0.6-0.9-0.6-1.4c0.1-2.6,0.5-5.2,1-7.7c0.5-2.3,1.1-3.8,3.5-3.8c1.1,0,2.1,0.2,3.2,0.6
		c0.6,0.2,1.2,0.6,1.6,1.1c0.5,0.8,0.6,1.8,0.4,2.8c-0.2,0.9-0.8,1.7-1.3,2.5C60.3,111.2,58.6,112.8,56.6,114.1z"/>
	<path class="st0" d="M107.5,95.1c-1.9-1.4-3.9,0.1-5.5,1.4c-1.7,1.4-3.3,3-4.8,4.8c-1.4,1.7-2.6,3.7-3.9,5.5
		c-0.2,0.3-0.6,0.7-0.9,0.6c-0.2,0-0.6-0.8-1.2-1.7c-1.4-2.3-1.5-2.5-2.6-4.3c-2-3.2-4.4-6.4-7.9-5.4c-0.6,0.2-1.2,0.5-1.7,1
		c-0.9,1-1,2.8-0.5,4.2c0.4,1.4,1.3,2.5,2.3,3.5c1.8,1.8,3.6,3.5,5.2,5.5c0.9,1.1,1.7,2.3,2,3.8c0.6,2.5,0,5.4-0.1,8
		c-0.1,2.9-0.2,5.9,0.2,8.8c0.2,1.3,0.4,2.6,1,3.7c0.9,1.9,2.7,2.5,4.3,2.1c1.3-0.3,2.7-1.1,3.3-2.7c0.6-1.7-0.2-3.6-0.4-5.4
		c-0.3-4.2-1.2-8.5-0.3-12.7c0.7-3,2.2-5.5,4.1-7.5c1.2-1.3,2.5-2.4,3.8-3.4c0.2-0.1,0.4-0.3,0.5-0.4c1.3-1,2.8-1.8,3.7-3.3
		c0.5-0.7,0.8-1.6,0.9-2.5C109.1,97.3,108.5,95.8,107.5,95.1z"/>
	<path class="st0" d="M36.9,109.8c-0.3-2.8-0.5-5.5-1.4-8.2c-0.6-1.8-1.5-3.5-2.8-4.8c-0.6-0.7-1.4-1.2-2.2-1.7
		c-4.6-2.6-10.8,0.1-12.6,4.6c-0.8,1.9-1,4-1.2,6c-1.2,8.9-3.8,17.7-6.3,26.4c-0.4,1.3-0.7,2.6-0.6,3.9c0.2,1.3,1.1,2.6,2.4,2.9
		c1.5,0.3,3-0.6,4-1.7c4.2-4.5,4.5-11,5.8-16.9c0.1-0.4,0.2-0.9,0.6-1.2c0.3-0.3,0.8-0.3,1.2-0.3c1.3-0.1,2.5-0.2,3.8-0.2
		c0.4,0,0.8,0,1.1,0.2c0.3,0.2,0.4,0.7,0.4,1.1c0.2,2.5,0.4,5,0.5,7.6c0.1,1.4,0.2,2.9,0.7,4.2c0.5,1.3,1.6,2.6,3,3
		c2.7,0.8,5.5-1.5,6.2-4s-0.1-5.3-0.7-7.9C37.9,118.5,37.3,114.2,36.9,109.8z M28.7,110.4c0,0.4-0.1,1-0.3,1.4
		c-0.4,0.6-0.8,0.7-1.5,0.8c-0.6,0.2-1.6,0.2-2.2,0.2c-0.3,0-0.7,0-1-0.2c-0.4-0.3-0.5-0.9-0.5-1.4c0-2,0.2-3.9,0.6-5.9
		c0.1-0.5,0.3-1.1,0.6-1.5c0.5-0.8,1.9-1.3,2.7-0.5c0.3,0.3,0.5,0.7,0.7,1.1c0,0.1,0.1,0.1,0.1,0.2
		C28.6,106.5,28.9,108.5,28.7,110.4z"/>
	<path class="st0" d="M51.2,38.9c0.8,0.9,2,1.4,3,1.3c1.7,0,3.3-1,4.6-2.2c2.9-2.6,4.9-6.1,6.8-9.6c0.8,1.7,1.7,3.5,2.5,5.2
		c0.5,1.1,1.1,2.2,1.8,3.2c1.3,1.9,3.1,3.4,5.3,3.5c1.5,0.1,3.1-0.6,4.1-1.9c1.2-1.6,0.8-3.7-0.5-5.1c-0.8-0.9-1.8-1.6-2.7-2.4
		c-2.6-2.2-4.5-5.3-5.5-8.7c-0.2-0.6-0.3-1.3-0.3-2c0.1-1,0.6-1.9,1.1-2.6c1.5-2.1,3.2-4,5.2-5.5c2.2-1.6,4.5-2.1,5.8-4.7
		c0.4-0.8,0.7-1.7,0.6-2.6C83,3.5,82,2.5,80.9,2.1c-2.8-1-6,0.3-8.3,2.1c-2.1,1.7-3.7,3.9-5.2,6.2c-0.8-2.7-1.6-5.3-2.8-7.8
		c-0.4-0.9-1.1-1.8-2-2.1c-0.7-0.3-1.4-0.2-2.1-0.1c-1.4,0.3-2.8,1.2-3.2,2.7c-0.4,1.3,0.1,2.7,0.5,4c1.3,3.7,2.5,7.4,3.8,11.1
		c0.1,0.4,0.3,0.8,0.2,1.2c0,0.3-0.2,0.6-0.4,0.9c-1.5,2.4-2.9,4.6-4.8,6.8c-1.9,2.2-3.9,4.3-5.3,6.9c-0.6,1-1,2.2-0.8,3.4
		C50.6,37.9,50.8,38.4,51.2,38.9z"/>
	<path class="st0" d="M4.6,40.2c0.6,0,1.2-0.1,1.7-0.3c1.6-0.6,3-2,3.7-3.8c0.6-1.4,0.8-2.8,1-4.4c0.1-0.8,0.2-1.6,0.4-2.4
		c0.6-3.1,2.1-5.4,4.2-6.5c1-0.6,2.2-0.8,3.3-1.1c0.9-0.2,1.7-0.4,2.4-0.7c1.6-0.7,2.7-1.9,2.9-3.2c0.3-1.4-0.5-2.8-1.8-3.4
		c-0.6-0.3-1.3-0.4-2.2-0.4c-0.6,0-1.2,0.1-1.8,0.1l-0.2,0c-0.3,0-0.7,0.1-1.1,0.1c-0.5,0-1-0.1-1.4-0.2c-1.1-0.3-1.9-1.1-2.1-2
		c-0.2-0.9,0.3-1.9,1.2-2.5c0.7-0.5,1.5-0.7,2.1-0.8l0.1,0c1.3-0.2,2.7-0.3,4-0.4c0.6,0,1.3-0.1,2-0.1c1.4-0.1,3.6-0.4,5.2-1.4
		c1.2-0.7,2.3-2.1,2.1-3.6c-0.2-1.4-1.8-2.7-3.8-3.1C26.1,0.1,25.3,0,24.5,0c-1.3,0-2.7,0.2-3.9,0.4L9.9,1.8C8.5,2,7,2.2,5.8,2.9
		C3.5,4,3.3,6.1,3.8,9.2c0.2,1.1,0.4,2.2,0.6,3.2c0.5,2.2,0.9,4.5,0.8,6.9c-0.1,3.2-1.2,6.2-2.3,9.1c-0.8,2.1-1.6,4.4-2,6.6
		c-0.3,1.8-0.1,3,0.5,3.9C2.1,39.7,3.3,40.2,4.6,40.2z"/>
	<path class="st0" d="M39,40.2c1.3,0,2.6-0.5,3.5-1.6c1.6-1.9,1.4-4.8,1.3-7.3c-0.3-6.1,0.1-12.2,1.6-18.1c0.4-1.6,0.9-3.3,1.1-5
		c0-0.3,0.1-0.7,0.1-1c0.1-2-0.5-4.2-1.9-5.5c-0.9-0.9-2.2-1.3-3.4-1.4c-1.3-0.1-2.7,0-3.7,0.9c-2.4,2.1-1.3,6.3-1.2,9.2
		c0.1,3.7-0.1,7.4-0.7,11.1c-0.6,3.6-1.6,7.2-1.7,10.8c-0.1,2.2,0.3,4.5,1.6,6.1C36.4,39.5,37.7,40.2,39,40.2z"/>
	<path class="st0" d="M115.3,25.8c-1.5-4.4-2.3-9-3.4-13.5c-0.8-3.4-1.8-8.9-5.2-10.9c-3.3-1.9-8.4-1.9-11.1,1
		C94,4.3,93.4,6.9,93,9.4c-0.6,3-1.2,6.1-1.8,9.1c-0.8,4.3-1.7,8.8-4.2,12.4c-0.4,0.6-0.8,1.2-1.1,1.8c0,0.1,0,0.1-0.1,0.2
		c-0.7,1.9,0.2,4.2,1.8,5.3c2,1.5,5.7,2,7.7,0.2c1.6-1.4,2.1-3.9,2.7-5.9c0.9-3,1.2-6.1,2.1-9.2c0.4-1.3,0.7-2.2,2.1-2.6
		c1-0.2,2.3-0.1,3,0.7c0.4,0.5,0.6,1.2,0.7,1.8c0.8,3.8,1.8,7.7,3.7,11c0.9,1.7,2.2,3.3,4,4s4.1,0.1,4.8-1.7c0.8-1.8,0-3.5-0.8-5.1
		C116.8,29.7,116,27.8,115.3,25.8z M104.1,16.7c-0.3,0.1-0.6,0.2-0.9,0.2c-0.8,0-2.2,0.1-2.8-0.5c-0.6-0.5-0.5-1.4-0.6-2.1
		c-0.1-1.3,0-2.6,0.1-3.9c0-0.3,0-0.8,0.1-1.2c0.1-0.7,0.2-1.4,0.7-1.8c0.4-0.4,1-0.5,1.6-0.4c0.7,0.2,1.3,0.8,1.6,1.5
		c0.6,1.2,0.9,2.5,1,3.8C105,13.3,105.5,16,104.1,16.7z"/>
	<path class="st0" d="M14.5,58.5c-0.4,8.1-1.4,16.1-3,24c-0.2,1.2-0.5,2.6,0.1,3.7c0.4,0.9,1.3,1.4,2.1,1.8c0.9,0.4,2,0.6,3,0.2
		c1.5-0.6,2.4-2.3,2.7-4c1.8-9.5,2.2-17.3,3.1-25.9c0-0.3,0.1-0.7,0.3-1c0.3-0.3,0.7-0.3,1.2-0.3c2.8,0,5.8-0.8,7.7-3
		c0.6-0.8,1.1-1.7,1.2-2.8c0.1-0.7-0.1-1.4-0.4-2.1c-0.2-0.3-0.3-0.5-0.6-0.7c-1.2-1.1-2.9-0.8-4.4-0.4C22.3,49,17.1,49.9,12,49
		c-2.1-0.4-4.2-1-6.4-0.9C1.7,48.4-2.6,54,2,56.9c1.7,1,3.7,1,5.6,0.9c2-0.1,4-0.1,6.1-0.2C14.1,57.7,14.5,58.1,14.5,58.5z"/>
	<path class="st0" d="M69.7,47.3c-3.9-0.5-7.7,1.9-10.2,5.2c-5.1,6.9-7.5,18.6-4.2,27c1.9,4.8,6.3,8.7,11.1,8.5
		c2.6-0.1,5.2-1.5,7.1-3.4c2-1.9,3.4-4.4,4.6-7c1.7-4,2.7-8.5,2.6-12.9c-0.1-3.2-0.7-6.4-2-9.3C77,51.3,73.7,47.8,69.7,47.3z
		 M73.9,67.3c-0.2,1.3-0.5,2.5-0.9,3.7c-0.3,0.8-0.6,1.6-1.1,2.2c-1,1.7-2.6,2.8-4.1,2.9c-0.6,0-1.2-0.1-1.7-0.5
		c-0.7-0.5-1.2-1.4-1.5-2.4c-1.6-4.3-0.9-10.4,1-14.3c0.7-1.5,1.8-2.8,3.1-3.1c1.9-0.5,3.8,1.2,4.8,3.6
		C74.2,61.8,74.3,64.6,73.9,67.3z"/>
	<path class="st0" d="M118.4,46.1c-0.7-1.9-2.9-3.2-4.8-2.7c-2.1,0.5-3.6,2.6-3.7,4.9c-0.1,1.5,0.2,3,0.4,4.5
		c0.1,1.8-0.1,3.5-0.3,5.3c-0.6,4.6-1.1,9.3-1.7,13.9c-3.7-7-4.4-12-6.3-18.2c-0.4-1.2-0.8-2.4-1.6-3.3c-1-1.2-2.6-1.9-4.2-1.9
		c-4,0-5.3,2.3-5.7,6.1c-1,7.8-2.4,15.6-4.2,23.2c-0.5,2-1,4.1-0.8,6.2c0.2,2.1,1.3,4.2,3.1,5c1.5,0.6,3.3,0.2,4.3-1.1
		c0.9-1.1,1.2-2.7,1.4-4.2c0.7-4.8,1.5-9.7,2.2-14.5c0.9,2.5,2.2,5,3.4,7.4c0.8,1.7,1.5,3,2.6,4.8c1,1.6,1.7,3.5,3.2,4.6
		c1.5,1.1,3.5,1.5,5.1,0.6c2-1.2,2.5-3.9,2.7-6.3c1.1-10,1.9-20.1,4.6-29.7c0.3-1.3,0.7-2.6,0.5-3.9
		C118.5,46.4,118.5,46.2,118.4,46.1z"/>
	<path class="st0" d="M46.2,77.3c-0.3-3.7-0.2-7.4,0.3-11.1c0.5-3.6,1.3-7.2,1.3-10.9c0-2.2-0.4-4.5-1.8-6.1c-0.9-1-2.2-1.6-3.5-1.6
		c-1.3,0-2.6,0.7-3.4,1.7c-1.5,2-1.2,4.8-1,7.3c0.5,6,0.3,12.2-1,18.1c-0.4,1.7-0.8,3.3-0.9,5c0,0.3,0,0.7,0,1c0,2,0.6,4.2,2.1,5.5
		c1,0.8,2.2,1.2,3.5,1.3c1.3,0.1,2.7-0.1,3.7-1.1C47.7,84.2,46.4,80.1,46.2,77.3z"/>
</g>
</svg>
